<svg xmlns="http://www.w3.org/2000/svg" viewBox="0 0 28 40" fill="none" aria-hidden="true">
  <rect x="9" y="1" width="10" height="5" rx="2" fill="#C4956A" />
  <rect
    x="10.5"
    y="6"
    width="7"
    height="7"
    rx="1"
    fill="#E4DCF0"
    stroke="#8a3897"
    stroke-width="1.2"
  />
  <path
    d="M10.5 13 C4 16 2 22 2 28 C2 36 7 39 14 39 C21 39 26 36 26 28 C26 22 24 16 17.5 13"
    fill="#E4DCF0"
    stroke="#8a3897"
    stroke-width="1.2"
  />
  <path
    d="M4 27 C4 27 4 37 14 37 C24 37 24 27 24 27 C24 23 20 21 14 21 C8 21 4 23 4 27Z"
    fill="url(#potion)"
  />
  <path d="M14 25.5 L14.8 23 L14 20.5 L13.2 23Z" fill="white" opacity="0.85" />
  <path d="M11.5 25.5 L14 24.7 L16.5 25.5 L14 26.3Z" fill="white" opacity="0.85" />
  <circle cx="9" cy="17" r="0.8" fill="white" opacity="0.4" />
  <circle cx="20" cy="15" r="0.6" fill="white" opacity="0.35" />
  <circle cx="19" cy="33" r="0.7" fill="white" opacity="0.5" />
  <defs>
    <linearGradient id="potion" x1="4" y1="21" x2="24" y2="37">
      <stop stop-color="#B464BA" />
      <stop offset="1" stop-color="#8a3897" />
    </linearGradient>
  </defs>
</svg>
